# xmcd CD database file
#
# Track frame offsets:
#	150
#	11271
#	23160
#	34641
#	48017
#	59638
#	71633
#	84069
#	96818
#	111091
#	122100
#	134077
#	146254
#	158188
#	170359
#	181535
#	193510
#	204120
#	216987
#	230878
#	244571
#	257091
#	268598
#	282597
#	294118
#
# Disc length: 4088 seconds
#
# Revision: 0
# Processed by: cddbd v1.5.2PL0 Copyright (c) Steve Scherf et al.
# Submitted via: CDex 1.70beta2
#
DISCID=5b0ff619
DTITLE=Sons Of The Pioneers - Sons of the Pioneers (disk3)
DYEAR=2008
DGENRE=Country
TTITLE0=Red River Valley
TTITLE1=Home on the Range
TTITLE2=Stars and Stripes of Iwo Jima
TTITLE3=The Everlasting Hills of Oklahoma
TTITLE4=The Rovin' Cowboy
TTITLE5=I Hang My Head and Cry
TTITLE6=Forgive and Forget
TTITLE7=Way Out There
TTITLE8=Wind
TTITLE9=You'll Never Miss The Water, Till the Well Runs Dry
TTITLE10=Santa Fe, New Mexico
TTITLE11=Grieving My Heart Out For You
TTITLE12=The Missouri is a Devil of a Woman
TTITLE13=Timber Trail
TTITLE14=Cajon Stomp
TTITLE15=Empty Saddles
TTITLE16=No Rodeo Dough
TTITLE17=Out California Way
TTITLE18=Over the Santa Fe Trail
TTITLE19=(There'll Never Be Another) Pecos Bill
TTITLE20=Will There Be Sagebrush In Heaven
TTITLE21=Kaw-Liga
TTITLE22=Lie Low Little Doggies (Cowboy's Lament)
TTITLE23=Stampede
TTITLE24=One More River To Cross
EXTD=YEAR: 2008
EXTT0=
EXTT1=
EXTT2=
EXTT3=
EXTT4=
EXTT5=
EXTT6=
EXTT7=
EXTT8=
EXTT9=
EXTT10=
EXTT11=
EXTT12=
EXTT13=
EXTT14=
EXTT15=
EXTT16=
EXTT17=
EXTT18=
EXTT19=
EXTT20=
EXTT21=
EXTT22=
EXTT23=
EXTT24=
PLAYORDER=
